<?xml version="1.0" standalone="no"?>
<!DOCTYPE svg PUBLIC "-//W3C//DTD SVG 20010904//EN"
 "http://www.w3.org/TR/2001/REC-SVG-20010904/DTD/svg10.dtd">
<svg version="1.0" xmlns="http://www.w3.org/2000/svg"
 width="352.000000pt" height="352.000000pt" viewBox="0 0 352.000000 352.000000"
 preserveAspectRatio="xMidYMid meet">
<metadata>
Created by potrace 1.14, written by Peter Selinger 2001-2017
</metadata>
<g transform="translate(0.000000,352.000000) scale(0.100000,-0.100000)"
fill="#000000" stroke="none">
<path d="M1599 3345 c-2 -2 -35 -6 -74 -10 -38 -4 -81 -9 -95 -11 -14 -2 -45
-7 -70 -10 -25 -3 -53 -7 -62 -10 -9 -3 -26 -7 -39 -9 -34 -7 -202 -55 -224
-65 -11 -5 -53 -23 -94 -40 -40 -18 -88 -40 -105 -51 -37 -23 -46 -24 -46 -5
0 22 -111 130 -155 151 -44 22 -150 29 -193 14 -75 -26 -116 -95 -116 -195 0
-60 5 -82 31 -135 18 -35 48 -80 67 -99 l34 -35 -63 -62 c-149 -147 -217 -324
-209 -541 1 -53 5 -106 8 -117 19 -85 33 -128 56 -180 19 -41 27 -73 24 -100
-4 -55 -15 -191 -19 -245 -16 -193 -23 -938 -13 -1424 3 -131 5 -150 21 -160
14 -9 20 -7 28 6 9 17 92 18 1510 18 1324 0 1500 -2 1505 -15 7 -17 22 -19 43
-6 9 6 15 43 19 127 13 287 -1 1251 -23 1571 -6 91 -4 106 12 130 61 89 103
231 110 373 5 93 1 128 -21 240 -10 47 -59 155 -97 211 -20 30 -64 80 -98 110
l-60 56 25 37 c64 94 93 208 72 284 -5 19 -29 53 -52 77 -35 34 -54 45 -92 51
-114 19 -191 -12 -281 -110 l-60 -65 -64 34 c-124 66 -359 151 -464 168 -16 3
-57 10 -90 16 -33 6 -78 13 -100 16 -46 7 -481 16 -486 10z"/>
</g>
</svg>
